<?xml version="1.0" encoding="UTF-8"?>
<svg id="Layer_1" xmlns="http://www.w3.org/2000/svg" xmlns:xlink="http://www.w3.org/1999/xlink" viewBox="0 0 1920.23 465.85">
  <link xmlns="http://www.w3.org/1999/xhtml" rel="stylesheet" href="../../css/style.css" type="text/css"/>
  <symbol id="fire1">
    <path d="M1920.23,465.85H.26c-.67-63.82.18-172.4.07-236.23,38.25-49.64,73.56-115.91,57.8-180.53,69.16,57.74,38.25,163.3,60.97,201.9,11.79,20.04,35.44,4.66,35.44-10.36,0-6.76-1.13-7.88-4.5-12.39-1.91-2.55-2.25-2.25-5.63-9.01h0c-1.13-3.38-3.38-10.13-1.55-21.29,6.81-38.21,51.8-106.13,87.89-126.68-22.02,62-32.08,139.87-5.54,201.9,8.12,18.98,27.67,42.96,36.42,22.17,8.42-20-26.93-84.84,1.58-161.52,16-43.02,52.24-70.7,86.3-98.97,6.85,3.19-36.36,58.52-16.63,148.06,8.59,39,50.5,99.98,74.43,63.34,19.04-29.16-17.75-81.08,11.08-148.85,13.39-31.47,46.69-60.9,76.8-76.8,3.64,1.88-24.61,44.99-27.71,76.8-8.75,89.65,87.4,205.76,84.57,120.72-1.13-33.78-5.97-61.96-4.5-76.57,2.25-22.52,7.88-38.29,13.51-49.55-12.29,42.43,10.13,135.13,54.49,134.46,4.4-.07,20.47-28.72,22.96-34.05,20.08-42.92,44.88-145.41,29.3-192.4,45.85,45.67,21,159.96,43.55,189.23,23.97,31.12,24.77-33.5,30.09-57.01.82-3.62,10.49-38.5,12.67-33.25-5.47,37.06,35.07,170.81,52.44,133.78,8.71-18.57-12.34-113.82,83.63-171.8,5.44.27-9.66,33.04-11.88,51.47-9.07,75.38,32.81,113.47,60.3,104.53,14.99-4.87,6.14-56.18,7.13-76.8,3.59-74.94,16.64,26.96,38.01,50.67,10.48,11.64,22.42,7.92,30.09-4.75,10.42-17.21,5.86-67.37,14.16-96.65,6.79,28.88,36.25,99.68,53.05,120.35,9.67,11.89,11.6,18.29,26.92,9.5,29.42-16.86,50.32-104.89,49.09-136.98-.69-18.12-8.42-35.55-11.88-53.05,89.32,66.51,46.14,167.78,67.3,208.24,7.68,14.69,31.48,24.5,42.76,7.92,14.12-20.77-13.77-56.85,7.92-112.43,11.4-29.21,42.07-57.55,67.3-75.22l2.38,2.38c-46.03,65.47-2.24,182.8,36.3,192.86,44.48,11.61,17.47-58.95,43.55-114.81,11.43-24.48,35.13-44.55,54.63-62.55-13.39,50.4-14.29,104.84,13.46,150.44,6.11,10.04,7.97,13.54,17.42,20.59,11.55,8.61,23.07,17.06,33.25,1.58,5.78-8.79,11.81-60.8,12.88-62.96,26.66-53.79,57.83-82.38,105.31-117.18l2.38,2.38c-25.4,35.98-15.39,146.56,9.5,175.77,26.1,30.63,22.9-11.65,23.75-46.71l4.75-3.17c16.18,75.92,75.77,74,69.68.79-1.61-19.31-35.46-82.91,37.21-138.56,25.96-19.88-3.96,10.3-7.13,40.38-3.38,32.19,14.14,85.49,31.67,112.43,18.12,27.84,22.91,18.15,42.76-36.42,19.22-52.85,34.06-112.81,21.38-168.65,45.06,51.77,25.64,144.35,34.45,188.07"/>
  </symbol>
</svg>
