<?xml version="1.0" encoding="UTF-8"?>
<svg id="Layer_1" xmlns="http://www.w3.org/2000/svg" xmlns:xlink="http://www.w3.org/1999/xlink" viewBox="0 0 1705.23 413.69">
  <link xmlns="http://www.w3.org/1999/xhtml" rel="stylesheet" href="../../css/style.css" type="text/css"/>
  <symbol id="fire1">
    <path d="M1705.23,413.69H.23c-.59-56.67.16-153.1.06-209.78,33.97-44.08,65.33-102.93,51.33-160.31,61.42,51.28,33.97,145.02,54.14,179.3,10.47,17.8,31.47,4.14,31.47-9.2,0-6-1-7-4-11-1.7-2.26-2-2-5-8h0c-1-3-3-9-1.38-18.91,6.05-33.93,46-94.25,78.05-112.5-19.55,55.06-28.49,124.21-4.92,179.3,7.21,16.85,24.57,38.15,32.34,19.69,7.48-17.76-23.91-75.34,1.41-143.44,14.2-38.2,46.4-62.78,76.64-87.89,6.09,2.83-32.29,51.97-14.77,131.48,7.63,34.63,44.84,88.78,66.09,56.25,16.91-25.89-15.76-72,9.84-132.19,11.89-27.95,41.46-54.08,68.2-68.2,3.24,1.67-21.85,39.96-24.61,68.2-7.77,79.61,77.61,182.72,75.1,107.2-1-30-5.3-55.03-4-68,2-20,7-34,12-44-10.92,37.68,9,120,48.39,119.41,3.91-.06,18.18-25.51,20.39-30.23,17.83-38.11,39.85-129.13,26.02-170.86,40.71,40.55,18.65,142.05,38.67,168.05,21.28,27.64,21.99-29.75,26.72-50.62.73-3.21,9.32-34.19,11.25-29.53-4.86,32.91,31.14,151.69,46.57,118.8,7.73-16.49-10.96-101.08,74.26-152.56,4.83.24-8.58,29.34-10.55,45.7-8.06,66.94,29.13,100.77,53.55,92.83,13.31-4.33,5.45-49.89,6.33-68.2,3.19-66.55,14.78,23.94,33.75,45,9.31,10.34,19.91,7.04,26.72-4.22,9.25-15.28,5.21-59.83,12.58-85.83,6.03,25.65,32.19,88.52,47.11,106.88,8.58,10.56,10.3,16.24,23.91,8.44,26.12-14.97,44.68-93.15,43.59-121.64-.62-16.09-7.48-31.57-10.55-47.11,79.32,59.07,40.97,148.99,59.77,184.92,6.82,13.04,27.96,21.76,37.97,7.03,12.54-18.45-12.23-50.48,7.03-99.84,10.12-25.94,37.36-51.11,59.77-66.8l2.11,2.11c-40.87,58.14-1.99,162.33,32.23,171.27,39.5,10.31,15.51-52.35,38.67-101.95,10.15-21.74,31.2-39.56,48.52-55.55-11.89,44.75-12.69,93.1,11.95,133.59,5.43,8.91,7.08,12.03,15.47,18.28,10.26,7.64,20.49,15.15,29.53,1.41,5.13-7.8,10.49-53.99,11.44-55.91,23.67-47.77,51.36-73.16,93.52-104.06l2.11,2.11c-22.55,31.95-13.67,130.15,8.44,156.09,23.18,27.2,20.33-10.34,21.09-41.48l4.22-2.81c14.37,67.42,67.29,65.71,61.88.7-1.43-17.15-31.49-73.63,33.05-123.05,23.06-17.66-3.52,9.14-6.33,35.86-3.01,28.59,12.55,75.92,28.12,99.84,16.09,24.72,20.34,16.12,37.97-32.34,17.07-46.93,30.24-100.18,18.98-149.77,40.01,45.98,22.77,128.19,30.59,167.02"/>  </symbol>
</svg>
